<svg id="Layer_1" data-name="Layer 1" xmlns="http://www.w3.org/2000/svg" viewBox="0 0 1095 386.96"><defs><style>.cls-1{fill:#fb0306;}.cls-2{fill:#fff;}.cls-3{fill:red;}.cls-4{fill:#f90d11;}.cls-5{fill:#d2373b;}.cls-6{fill:#b55e64;}.cls-7{fill:#ca312e;}</style></defs><path class="cls-1" d="M666.58,397.63c4-5.24,7.74-10.71,12.23-15.66,4-4.43,3.64-7.54-2.35-9.84-7.66-2.94-11.11-6.87-5.71-13.66a9,9,0,0,0,1.39-4.52c1-8.25,4.59-13.5,16.21-11.11,4.83,1,7.46-.93,7.47-5.5a137.52,137.52,0,0,1,1.16-17.2c.69-5.39-1.72-8.13-8.2-7.52-9.38.89-13.79-2.36-13.44-10.28a7.34,7.34,0,0,0-.78-3.85c-4.55-8-2.52-13.46,8.29-16,4.34-1,5.72-3.49,3.5-7.27-3.7-6.29-7.07-12.71-10.5-19.1-2.15-4-5.21-4.92-9.5-2.18-8.59,5.47-15.5,4.25-20.88-3.58a9.72,9.72,0,0,0-3.15-2.84c-7.25-4.11-7.45-8.64-1.59-13.82s4.16-8.69-3-12.09c-4.92-2.36-9.93-4.72-13.92-8.67s-8.87-5.06-12.5,1.83c-5.59,10.63-6.1,10.44-19.11,6.65a14.28,14.28,0,0,0-3.54-.94c-10.21-.22-12.45-4.88-10.3-12.4,2.06-7.24-1.16-10.75-10.49-10.35a116.44,116.44,0,0,1-16.78-.82c-6.65-.68-9.53,1.87-8.85,7,1.25,9.57-2.79,13.85-14.92,15.51-9.63,1.32-14.91,1.17-17.35-7.5-1.85-6.53-5.83-8.93-13.8-4.28-5.34,3.13-12,4.33-17.37,8.1-4.36,3.05-5.58,5.29-2.61,8.95,4.19,5.16,1,5.74-4.5,5.93-30.82,1.13-61.63,2.44-92.45,3.67L247.6,239.5c-3.53,1.3-7.92-.65-11.5,1.73,2.68,3,6,1.74,8.83,1.76,15.48.14,31,0,46.46.13,2.93,0,6.19-1.09,8.84,1,5.56.28,11.12.74,16.69.8,53.73.58,107.44,1.73,161.12,3.85,9.88,3.39,19.11,2.21,28.55-1.82,36.82-15.69,73.32-15,106.59,5.85,22.79,14.25,37.07,33.93,40.4,58.64,3.64,27.05-4.88,50.52-26.17,70.89a15.59,15.59,0,0,0-3.06,3.91q-1.89,5.58-8.65,7c-2.52,1-4.61,2.3-5.69,4.53a6.23,6.23,0,0,0,7.77,6.75c6.48-1.54,13.08-.64,19.38-2.17.53-.21,1.28-.3,1.55-.65,7.47-9.61,7.46-9.62,18.74-3.89C660.54,399.45,663.59,400,666.58,397.63Z" transform="translate(-181 -59.48)"/><path class="cls-2" d="M738.39,400.65Q887.81,412.28,1037.2,424c7.37.59,9-.92,8-6.94-3.51-21.63-1.25-42.62,10.15-62.72,5.38-9.48,12.92-17.2,22.41-23.66,45.89-31.24,108.76-29.27,151.85,4.63,2,1.55,4,3.07,6.09,4.72,1.64-2.71-.4-4.45-1.44-6.15-34.56-56.79-121.14-68.47-178-29.7-31.6,21.57-45.63,51.48-45.13,85.7.09,6.49-2,8.16-9.74,8.13q-131.46-.37-262.91-.18C737.13,398.73,737.16,399.67,738.39,400.65Z" transform="translate(-181 -59.48)"/><path class="cls-2" d="M476.17,374c7.31-1.15,12.77.93,18.21,5.38,12.1,9.88,27,15.64,43.65,18.23,35.88,5.58,73-7.74,91.78-34.35,21.69-30.73,18-72.26-16.16-98.05-29.2-22-65.18-26.91-98.83-13.08-5.47,2.25-10.64,4.75-14.89,8.92-6.4,6.27-15.64,2.94-23.76,3.22-22.75.47-45.5,1.06-68.25,1.38q-78.12,1.1-156.25,2c-.7.24-.94.48-.72.74a.91.91,0,0,0,.68.4l246,6.08c2.75.07,5.68.61,8-1.28,9.36-7.72,21.64-11.37,33.43-14.82a50.19,50.19,0,0,1,34.08,1.66c6.86,2.89,14.56,4.5,21.15,8.08,31.4,17,41.64,50.84,27.49,80.39-17.15,35.83-78.22,52.5-119.14,20.1-2.58-2-4.95-3.59-8.84-3.57-38.68.24-77.36.33-116,.49-.56,0-1.12.34-4.19,1.34,11.24.76,20.12,1.38,29,2Z" transform="translate(-181 -59.48)"/><path class="cls-3" d="M587.76,408.33c-9.85,1-19.29,3.57-29.42,3.76-25.3.5-47.53-5.42-66.46-19.67-2.73-2.06-5.35-4-9.67-4-34.24.14-68.48.08-98.95.08l51.5,10.78a8.21,8.21,0,0,1,7.54,2.55c6.94,1.32,13.87,2.65,20.82,3.94,3.82.71,5.62,2,2.44,5.08-5.44,5.3-2.72,8.55,3.7,11.41a128.68,128.68,0,0,1,14.77,8c5.28,3.23,9.08,2.55,11.67-2.43,3.68-7.1,9-8.91,17.3-4.68,3.06,1.56,7,2.14,10.6,2.7,4.3.67,5.08,2.65,5.11,6,.1,12.15.26,12.15,14.84,12.9a27.93,27.93,0,0,0,18.77,0c2.72-2,2.58-4.73,2.28-7.2-.9-7.42,3.49-9.79,11.65-10.18,5.74-.27,11.39-1.89,17.08-2.91,1.13.48,2.74.94,3.39.12,3.54-4.46-1.39-8.12-2-12.21C594.21,409.49,592.36,407,587.76,408.33Z" transform="translate(-181 -59.48)"/><path class="cls-2" d="M451.87,308l12.11.77c16.6,1.06,16.6,1.06,20.94-12.82H273.23l-.12,1.73,150.51,7.59c4.36,2.26,9.21,1,13.83,1.34C442.25,307.07,447.35,305.48,451.87,308Z" transform="translate(-181 -59.48)"/><path class="cls-4" d="M587.76,408.33c4.86,3,8.54,13.67,5.57,16.21,7.89,14.85,7.89,14.84,24.79,7.59,1.65-.71,3.37-1.32,5-2,10.94-4.44,12-5.12,5.78-13.67-6.89-9.49,5.76-9.38,8.22-14.13-1.24,0-3.11.38-3.61-.14-4.56-4.78-8-1.82-12.6.32-4.8,2.23-8.78,0-10-4.8C604,402.36,595.56,404.89,587.76,408.33Z" transform="translate(-181 -59.48)"/><path class="cls-2" d="M324.71,331.47q74.61,4.08,149.24,8c2.48.12,8.16,2.63,7.22-2.42-.67-3.57,2-9.92-7.87-9.62-27.09.82-54.21,1-81.32,1.37-19.85,1.25-39.74.13-59.6.65C329.84,329.56,326,327.47,324.71,331.47Z" transform="translate(-181 -59.48)"/><path class="cls-2" d="M505.14,69.48c2.54.27,4.75.91,6.32,2.85,1,1.24,2.83,3.32,3.7,3.13,14.09-3.11,12.31,5.29,14.65,12.47,2.93,9,11.84,8.95,22.19.44,4.6-3.78,8.52-8.13,12.87-12.14,2-1.88,3.68-3.51.89-5.94-2.54-2.2-4.78-2.11-7,.09-2.58,2.49-5.19,2.69-7.73.05-2.89-3-7.87-2.89-11.13-5.32A231.29,231.29,0,0,0,505.14,69.48Z" transform="translate(-181 -59.48)"/><path class="cls-2" d="M570.56,109.15l-6.29-.65c6-1.25,13.14-.4,13.1-8.56,0-7-4.89-10.82-11.54-12.54-7.14-1.84-12.77,1.85-16,6.95-4,6.33-2,11.91,5,16.14C560.11,110.59,565.43,110.64,570.56,109.15Z" transform="translate(-181 -59.48)"/><path class="cls-5" d="M300.23,244.13c-2.49-2.95-6.21-1.71-9.39-1.73-17.27-.12-34.55-.06-52.95-.06,3.38-2.66,7.46-.51,9.71-2.84-12.46-.74-24.81.81-37.21,1.23-1,.56-1,1.14,0,1.73C240.3,243.73,270.25,244.55,300.23,244.13Z" transform="translate(-181 -59.48)"/><path class="cls-2" d="M324.71,331.47c18.43-2.56,37-.62,55.51-1.45,3.93-.18,8.09.93,11.76-1.18H313.19l0,2.11A32.83,32.83,0,0,0,324.71,331.47Z" transform="translate(-181 -59.48)"/><path class="cls-2" d="M738.39,400.65l.14-2.82c-3.62-.76-7.12-.54-11.83.76C730.88,401.76,734.68,401,738.39,400.65Z" transform="translate(-181 -59.48)"/><path class="cls-6" d="M1246.64,242.46l0-1.73H1265A45.84,45.84,0,0,1,1246.64,242.46Z" transform="translate(-181 -59.48)"/><path class="cls-2" d="M959.19,215.46c-1.7-4.65-6.12-2.73-9.7-2.82C951.54,216.43,955.53,215.56,959.19,215.46Z" transform="translate(-181 -59.48)"/><path class="cls-4" d="M625.6,387.65a33.3,33.3,0,0,0-9.73,6.6C621.75,394.79,624.74,392.32,625.6,387.65Z" transform="translate(-181 -59.48)"/><path class="cls-7" d="M442.3,401.86c-.45-5.13-3.17-5.56-7.54-2.55C436.45,401.86,439.44,401.73,442.3,401.86Z" transform="translate(-181 -59.48)"/><path class="cls-2" d="M540.1,86.55c3.25-1.39,6.33-3.18,6.85-6.49.38-2.37-1.69-4-4.5-3.77-3.71.36-5.92,2.53-6.24,5.7C536,84.21,536.86,86,540.1,86.55Z" transform="translate(-181 -59.48)"/><path class="cls-2" d="M181,196.64l134.21-3.17c16.71-.07,33.43.54,50.1-.61a23.77,23.77,0,0,0,7-.58c43.25.67,86.43-1.36,129.64-2.4a116.6,116.6,0,0,0,21.57-2.2c-17.83-2.14-35.64-4.49-53.51-6.39-36.3-3.86-72.65-7.49-109-11.15a47.65,47.65,0,0,0-6.52.2l-5.17-.35c-.91-.19-1.8-.35-2.68-.48l-12.75-2.25-9.28-.39c-2.75-2.66-6.25-1.07-9.44-1.2-5.89-1.23,1.48-2.06.13-3.15l16.88-6.46c33.92-11.1,68.22-21.2,103.69-28.32,36.81-7.37,73.85-13.4,111.6-16.11,2.45-.18,4.88-.75,7.32-1.14.81-3-2.63-4.51-3.45-7-1.88-5.61.68-9.73,6.15-12.69,5-2.67,9.59-1.41,13.53,1.76,6,4.84,4.38,10.69-3.56,12.91-2,.57-4.38.58-5.33,3,2.56,2.21,5.55,1.1,8.44.67,28-1.09,56-2.66,84.06-1.62,28.4,1,57,2.76,83.68,11.1C774.64,130,807.76,146,836.92,168.34c28.1,21.56,62.25,35.27,99.69,42.5,4.24.82,8.58,1.21,12.87,1.8,2.7,2.24,7,.51,9.71,2.82,39.86,1.14,79.77,1.64,119.56,3.62s79.81,1.78,119.25,7.52a135.61,135.61,0,0,1,17,4c32.25,9,50.38,28.27,57.33,55.69.73,2.9,0,6.21,2.62,9,5.18-27.86-9.93-56-40.58-74-26.85-15.76-57.28-20.09-88.18-24.44-58.1-8.18-116.3-15.29-175.14-18.86-31-1.88-56.52-16.06-81.6-30-18.39-10.26-33.24-24.15-50.39-35.67-22.26-15-47.59-25.37-73.91-34.56C706.11,57,644.48,58.13,582.53,61.14c-14.27.7-28.61,1.47-42.68,4,6.24,7,12.86,9.09,24,6.77-3,7.3-9.88,11.05-15,15.65-2.83,2.54-6.19,6.8-11.69,4.52-4.9-2-6.37-6.2-6.28-10.6.09-5.66-1.92-9.14-9.82-7.72a9.13,9.13,0,0,1-7.6-2.23c-2.35-2-5-3-8.36-2a490.71,490.71,0,0,0-75.46,15c-4.36,1.26-9,.53-13.55,1.66a701.11,701.11,0,0,0-95,30.71c-8.62,3.5-16.47,8.36-24.67,12.59a104.39,104.39,0,0,0-22.44,10.85c-17.16,8.23-33.55,17.2-48.53,28.25C212.33,178.33,197.39,186.43,181,196.64Z" transform="translate(-181 -59.48)"/><path class="cls-2" d="M555.81,100.5c1.49,2.37,3.59,4,6.71,3.56,4.21-.62,6.35-3.57,6.35-6.64,0-2.34-3.33-2.91-5.93-2.4A9.58,9.58,0,0,0,555.81,100.5Z" transform="translate(-181 -59.48)"/></svg>